<?xml version="1.0" encoding="UTF-8" standalone="no"?>
<!-- Created with Inkscape (http://www.inkscape.org/) -->

<svg
   xmlns:dc="http://purl.org/dc/elements/1.1/"
   xmlns:cc="http://creativecommons.org/ns#"
   xmlns:rdf="http://www.w3.org/1999/02/22-rdf-syntax-ns#"
   xmlns:svg="http://www.w3.org/2000/svg"
   xmlns="http://www.w3.org/2000/svg"
   xmlns:sodipodi="http://sodipodi.sourceforge.net/DTD/sodipodi-0.dtd"
   xmlns:inkscape="http://www.inkscape.org/namespaces/inkscape"
   width="210mm"
   height="297mm"
   viewBox="0 0 210 297"
   version="1.1"
   id="svg8"
   inkscape:version="0.92.4 (5da689c313, 2019-01-14)"
   sodipodi:docname="logo.svg">
  <defs
     id="defs2" />
  <sodipodi:namedview
     id="base"
     pagecolor="#ffffff"
     bordercolor="#666666"
     borderopacity="1.0"
     inkscape:pageopacity="0.0"
     inkscape:pageshadow="2"
     inkscape:zoom="0.7"
     inkscape:cx="132.85245"
     inkscape:cy="840.07173"
     inkscape:document-units="mm"
     inkscape:current-layer="layer1"
     showgrid="false"
     inkscape:window-width="1920"
     inkscape:window-height="1057"
     inkscape:window-x="1592"
     inkscape:window-y="-8"
     inkscape:window-maximized="1" />
  <metadata
     id="metadata5">
    <rdf:RDF>
      <cc:Work
         rdf:about="">
        <dc:format>image/svg+xml</dc:format>
        <dc:type
           rdf:resource="http://purl.org/dc/dcmitype/StillImage" />
        <dc:title></dc:title>
      </cc:Work>
    </rdf:RDF>
  </metadata>
  <g
     inkscape:label="圖層 1"
     inkscape:groupmode="layer"
     id="layer1">
    <path
       style="fill:#000000;stroke-width:0.19503471"
       d="m 17.682759,144.37554 c -2.836497,0.0752 -5.095972,-0.56693 -7.371423,-2.09471 -2.853114,-1.91562 -4.627427,-4.73624 -5.3086016,-8.43906 -0.7403935,-4.02477 -0.2924121,-7.37864 1.4991267,-11.2233 0.5789961,-1.24254 0.8256198,-1.57954 1.1663068,-1.59373 0.7046377,-0.0293 0.7813109,0.69525 0.1994668,1.88513 -3.6253956,7.41402 1.6671281,15.6299 10.5495973,16.37674 6.849735,0.57591 14.539282,-2.03385 21.86168,-7.41967 5.88735,-4.33032 10.641903,-9.72725 16.642398,-18.89096 l 2.592276,-3.95881 -0.721384,0.071 c -0.648201,0.0638 -7.126268,1.84049 -10.149819,2.7837 -1.481922,0.46231 -1.700848,0.2802 -0.880735,-0.73251 1.24936,-1.54281 2.03161,-1.85368 7.882736,-3.13259 l 5.256062,-1.14886 5.903168,-8.523298 c 6.856088,-9.899175 10.271267,-14.357385 16.337859,-21.327532 0.931542,-1.070292 1.647976,-1.977025 1.59206,-2.014955 -0.244636,-0.165982 -5.100272,-0.617962 -9.179661,-0.85447 -7.738102,-0.448634 -12.560908,-0.232787 -18.309805,0.819461 -2.850466,0.521756 -4.087355,0.828794 -5.100345,1.266153 -2.992917,1.292201 -5.613948,3.292557 -7.480985,5.709458 -2.150932,2.784398 -3.515296,7.713315 -3.399845,12.2823 0.04079,1.614305 -0.09453,2.025288 -0.578915,1.758193 -0.422905,-0.233235 -0.511473,-1.57041 -0.303392,-4.5804 0.693855,-10.036986 7.067533,-16.994882 17.798596,-19.430006 7.08686,-1.608173 18.639797,-1.836085 29.233898,-0.576715 1.684338,0.200222 3.216021,0.378025 3.403757,0.395117 0.492756,0.04486 0.710411,0.506998 0.484467,1.028664 -0.107587,0.248393 -0.645902,1.242532 -1.196272,2.209203 -5.486848,9.637301 -7.697338,23.504727 -6.020931,37.772187 0.846913,7.20786 2.37082,11.52541 4.622314,13.09601 1.010403,0.70484 1.898556,0.84859 3.403298,0.55083 2.175227,-0.43042 4.203662,-2.35541 5.738924,-5.44621 0.764938,-1.53998 0.969844,-1.75227 1.252114,-1.29731 0.519084,0.83663 -3.057901,7.01851 -5.39052,9.31607 -1.893193,1.86476 -3.173286,2.44959 -4.973729,2.27236 -3.498905,-0.34441 -6.160621,-4.31436 -7.430761,-11.08293 -0.769925,-4.10294 -1.347358,-11.80322 -1.135383,-15.14074 l 0.03342,-0.5258 -4.12092,0.75858 c -2.26652,0.41707 -6.317507,1.2513 -9.002171,1.85392 l -4.881215,1.09569 -4.235026,6.16755 c -6.109247,8.89703 -8.903492,12.34865 -13.740866,16.97363 -2.820116,2.69629 -6.623671,5.69811 -9.165191,7.23329 -1.97619,1.19372 -5.780429,2.93646 -8.271187,3.7891 -2.418552,0.82792 -7.501571,1.92808 -9.104353,1.97054 z m 56.50104,-40.05098 6.070345,-1.2431 0.101698,-1.712 c 0.49198,-8.282299 2.664276,-17.477661 5.815608,-24.617479 0.462492,-1.047857 0.735221,-1.812923 0.606064,-1.700135 -0.720916,0.629517 -6.668889,7.909603 -9.552081,11.691392 -2.46402,3.231992 -12.289849,17.183102 -13.115657,18.622162 l -0.600519,1.04646 2.302101,-0.42211 c 1.266158,-0.23216 5.033744,-0.98152 8.372448,-1.66519 z"
       id="path4529"
       inkscape:connector-curvature="0" />
    <path
       style="fill:#000000;stroke-width:0.1997409"
       d="m 19.123826,138.44 c -3.00812,0.3401 -5.133442,0.13244 -7.687849,-0.7512 -1.8937364,-0.6551 -2.3121525,-0.90871 -3.6582357,-2.21732 -1.2137246,-1.17994 -1.6492296,-1.80083 -2.1617561,-3.082 -0.9154871,-2.28845 -1.1636021,-4.25821 -0.8841926,-7.01955 0.454007,-4.48691 2.1481982,-8.32338 5.0854295,-11.51587 1.9190999,-2.08589 5.0308609,-4.47236 5.4338379,-4.16732 0.419669,0.31769 0.19881,0.71396 -0.969618,1.73976 -2.143707,1.88203 -3.61117,4.22024 -4.4758978,7.13179 -0.6368882,2.1444 -0.9386218,6.49519 -0.5991632,8.63948 0.6410749,4.0495 2.957447,7.15582 6.225937,8.34915 2.369798,0.86521 4.877083,0.94515 8.610764,0.27452 7.789903,-1.39916 14.302674,-5.24546 20.627839,-12.18228 4.599481,-5.04425 8.159895,-10.66441 11.688983,-18.45122 1.165859,-2.57244 3.246232,-7.696727 3.15911,-7.781403 -0.03524,-0.03423 -0.342682,0.206422 -0.683253,0.534757 -1.186774,1.144076 -4.333807,3.566996 -6.032012,4.644056 -2.443395,1.5497 -4.876665,2.62689 -7.592027,3.36095 -8.075143,2.18299 -12.663762,-0.0753 -13.72416,-6.754259 -0.324938,-2.046643 0.135906,-6.903929 0.95591,-10.075288 3.2794,-12.683075 11.714325,-25.941478 22.499933,-35.366428 7.503084,-6.556531 14.107063,-10.046577 21.490506,-11.357214 3.153798,-0.559832 5.054315,-0.464573 6.690971,0.335363 1.847451,0.902958 2.820833,2.598218 2.614641,4.553661 -0.209232,1.989022 -1.669945,5.177847 -4.484134,9.792268 -1.899001,3.113756 -2.09365,3.341448 -2.582612,3.020789 -0.341597,-0.224012 -0.339892,-0.241238 0.09648,-0.97394 3.554066,-5.968971 4.183641,-9.621539 2.020739,-11.723554 C 79.25869,45.909496 76.90597,45.543797 73.151081,46.21033 61.678292,48.246867 50.067278,57.497024 43.348452,69.953222 c -4.234047,7.849598 -6.833166,17.040912 -6.87348,24.306795 -0.03741,6.742453 2.027185,9.959443 6.47107,10.083013 2.840945,0.079 7.622425,-1.51888 10.473089,-3.4999 4.01305,-2.788797 7.30797,-7.017452 9.173251,-11.772805 0.619164,-1.578516 1.007169,-2.058563 2.154674,-2.665813 1.084494,-0.573894 3.042329,-0.921994 3.144573,-0.558901 0.08635,0.306805 -1.473065,4.48792 -3.315199,8.888105 -8.162742,19.497844 -19.068229,33.227344 -31.24241,39.332774 -4.928812,2.47184 -9.306691,3.8193 -14.2101,4.3737 z"
       id="path4542"
       inkscape:connector-curvature="0" />
    <path
       style="fill:#000000;stroke-width:0.37715736"
       d="m 76.436971,146.42105 c -1.773752,-0.15958 -3.87681,-0.63906 -5.243971,-1.1956 -2.925411,-1.19086 -6.541748,-4.33471 -7.989735,-6.94586 -0.96129,-1.73348 -1.11666,-2.41624 -1.065953,-4.68424 0.04934,-2.20642 0.293436,-3.11724 1.444922,-5.39111 1.75427,-3.4642 4.22357,-6.61963 7.18179,-9.17732 2.779519,-2.40319 7.113511,-5.14276 7.653828,-4.83809 0.977027,0.55093 0.161644,1.58624 -2.834337,3.59882 -4.127591,2.77277 -8.024382,6.70277 -9.920655,10.00521 -1.312568,2.28588 -1.478526,2.85251 -1.359463,4.64154 0.156694,2.35424 1.422634,4.36878 3.158681,5.02649 1.411986,0.53494 3.051697,2.31809 3.053584,3.32071 0.002,1.30459 1.500693,3.13191 3.05309,3.72371 1.470801,0.56069 6.067885,0.56446 6.680547,0.005 0.158948,-0.14502 -0.278443,-0.73652 -0.971967,-1.31446 -0.69353,-0.57794 -1.260956,-1.31138 -1.260956,-1.62987 0,-0.75845 1.986467,-1.48872 4.935643,-1.81446 6.399448,-0.70684 12.791632,-3.57379 19.438181,-8.71819 1.39503,-1.07975 2.60075,-1.90446 2.67941,-1.8327 0.35235,0.32148 -1.2281,2.54571 -3.3817,4.75924 -1.29223,1.3282 -2.349532,2.65034 -2.349532,2.93808 0,0.78458 1.569442,0.63402 3.288552,-0.31548 1.80478,-0.99678 6.1879,-4.8728 6.1879,-5.47198 0,-0.23241 0.35558,-0.71617 0.79018,-1.07502 1.42079,-1.17313 2.70202,-4.21555 2.98805,-7.09539 0.24229,-2.43953 0.16816,-2.92978 -0.70476,-4.66014 -1.64974,-3.27024 -5.0864,-5.68993 -8.10784,-5.70856 -2.47508,-0.0152 -0.97851,1.7196 2.3216,2.69126 2.39463,0.70505 3.10762,1.33089 3.10762,2.72773 0,1.8266 -2.86136,6.69771 -5.61545,9.55962 -1.20657,1.2538 -6.266261,4.4453 -11.185455,7.05545 -8.941946,4.74466 -18.582873,5.52303 -24.007042,1.93825 -1.478537,-0.97715 -2.628498,-3.0804 -2.614718,-4.78224 0.0146,-1.80147 1.920474,-5.65862 3.758675,-7.60688 1.927909,-2.04332 4.407004,-3.55439 4.977489,-3.03388 0.30134,0.27494 -0.101624,1.05766 -1.397573,2.71466 -2.558367,3.2711 -3.727935,6.0204 -2.561103,6.0204 0.244845,0 1.888415,-1.10413 3.652382,-2.45364 5.480029,-4.19243 5.46453,-4.18367 6.066463,-3.4326 0.461388,0.5757 0.119663,0.99225 -3.19598,3.89588 -3.423791,2.99832 -5.388628,5.48711 -5.388628,6.82558 0,0.32415 0.593268,0.67756 1.4807,0.88207 4.809072,1.10826 8.455316,0.74765 14.708234,-1.45463 2.280268,-0.80311 4.590151,-1.61149 5.133075,-1.79638 1.126313,-0.38357 5.698075,-4.1528 5.778519,-4.76416 0.02925,-0.22222 0.07367,-0.62558 0.09871,-0.89637 0.02945,-0.31804 0.340795,-0.42189 0.879528,-0.29336 0.745664,0.17791 0.808844,0.0843 0.596574,-0.88407 -0.14386,-0.65628 -0.006,-1.49188 0.35057,-2.12049 0.82616,-1.45764 0.75835,-3.7029 -0.13409,-4.43979 -0.9148,-0.75534 -2.368208,-0.76447 -3.269184,-0.0206 -0.383457,0.31662 -0.866111,0.48042 -1.072567,0.36401 -0.206448,-0.11641 -0.770471,-1.54765 -1.253381,-3.18053 -1.241697,-4.1986 -1.024507,-8.64678 0.511933,-10.48466 2.219682,-2.65516 8.544349,-3.68274 13.873819,-2.25411 9.31953,2.49822 19.99496,10.7682 24.54754,19.01635 1.89416,3.43172 2.55933,7.46027 1.60108,9.69679 -0.81226,1.89581 -1.97715,3.15494 -4.1104,4.44296 -2.66169,1.6071 -7.6002,1.63458 -7.6002,0.0423 0,-0.26905 0.24457,-0.57479 0.54347,-0.67945 0.33362,-0.11681 0.47281,-0.52755 0.36048,-1.0637 -0.16256,-0.77587 0.0204,-0.92542 1.63838,-1.33871 1.00177,-0.2559 1.89968,-0.58086 1.99537,-0.72211 0.0957,-0.14126 -1.64131,-0.36205 -3.85999,-0.49064 -4.49827,-0.26072 -7.83884,-0.95258 -8.79014,-1.82054 -1.37273,-1.25245 -1.35607,0.0192 0.018,1.37191 1.11319,1.09592 1.28782,2.29304 0.38082,2.61059 -0.33347,0.11676 -1.68784,-0.23056 -3.00971,-0.7718 -1.95533,-0.80062 -2.46849,-0.89267 -2.75245,-0.49378 -0.49023,0.68865 1.56247,2.22429 5.00593,3.74501 5.45229,2.40783 13.1735,2.43883 18.30626,0.0735 3.51482,-1.61974 4.74533,-3.12507 5.41146,-6.62009 0.56334,-2.95567 0.50433,-3.36806 -0.38549,-2.69428 -0.45642,0.3456 -0.60489,0.17743 -0.82937,-0.93936 -0.88412,-4.39873 -3.27821,-8.96122 -6.99931,-13.33884 -1.05266,-1.23838 -1.75279,-2.25159 -1.55585,-2.25159 0.37925,0 3.97209,2.43189 6.48826,4.39174 1.96254,1.52862 2.45237,0.94476 1.44609,-1.72375 -1.14293,-3.03092 -2.70083,-5.16422 -5.93508,-8.12717 -3.1718,-2.90572 -6.24794,-4.62799 -8.26606,-4.62799 -1.72706,0 -1.92007,0.87039 -0.66805,3.01262 0.57861,0.99002 0.98198,1.86396 0.89636,1.94206 -0.0856,0.0781 -0.70043,-0.115 -1.36625,-0.42914 -2.82829,-1.33441 -8.22614,-3.11027 -12.18312,-4.00816 -2.33783,-0.53048 -4.56154,-1.11278 -4.94158,-1.294 -0.80283,-0.382828 -0.91231,-1.232134 -0.19743,-1.531695 0.27146,-0.113754 0.0493,-0.109144 -0.49356,0.01031 -1.77057,0.389346 -5.289966,2.365465 -7.202781,4.044285 -2.454802,2.15451 -4.249976,5.93938 -4.243251,8.94634 0.0047,2.35946 0.63498,4.79311 1.968442,7.60752 0.781933,1.65035 0.835107,2.02627 0.393167,2.77968 -0.642911,1.09603 -0.962634,0.91128 -1.95105,-1.12741 -0.647358,-1.33525 -0.937526,-1.59539 -1.590652,-1.42611 -0.439366,0.11388 -1.154217,0.29903 -1.588556,0.41146 -0.43434,0.11242 -0.789703,0.35559 -0.789703,0.54038 0,0.18479 -0.170829,0.33598 -0.379636,0.33598 -0.357257,0 -0.942708,-1.57594 -1.338334,-3.60256 -0.09671,-0.49534 -0.298511,-1.48895 -0.448464,-2.208 l -0.272641,-1.30737 2.010457,-0.44005 c 2.283967,-0.49991 2.656554,-0.80785 1.780261,-1.47139 -0.499649,-0.37833 -0.873645,-0.37918 -2.009143,-0.004 -0.960235,0.3168 -1.522431,0.34424 -1.803273,0.088 -0.743773,-0.67862 0.02877,-1.46297 1.942465,-1.97209 1.830126,-0.48687 1.916696,-0.57304 2.77588,-2.76283 1.351522,-3.44463 5.451194,-7.478841 9.489842,-9.338314 4.79147,-2.206076 12.39707,-2.421426 18.67372,-0.528739 8.09495,2.440995 15.61383,8.252153 19.58007,15.132953 3.24312,5.6263 4.10465,9.18111 3.67265,15.15393 -0.31639,4.37457 -0.78742,5.54616 -3.47874,8.6526 -1.83404,2.11695 -5.72285,4.09897 -9.42168,4.80197 -2.75605,0.52379 -9.39162,0.24416 -11.97926,-0.50484 -2.04572,-0.59214 -7.12829,-2.85856 -8.74075,-3.89769 l -1.07115,-0.69029 -2.99066,2.16834 c -5.763133,4.17846 -11.697885,6.84745 -17.767664,7.99048 -3.701721,0.69709 -5.879812,0.7596 -10.859222,0.31163 z m 54.805539,-16.70774 c 1.63211,-0.77005 1.87243,-2.05846 0.87656,-4.69939 -2.90376,-7.70043 -13.84219,-17.09348 -22.31711,-19.16416 -4.32947,-1.05783 -6.77304,-0.35058 -7.7067,2.23057 -0.50723,1.40227 -0.0553,2.32184 1.14127,2.32237 1.41885,6e-4 5.53836,2.16476 7.39304,3.88383 2.9284,2.71429 3.85404,4.66311 3.97299,8.36457 0.0542,1.6842 0.10665,3.25309 0.11672,3.48641 0.0288,0.66647 4.67201,3.07364 7.30593,3.7876 2.82313,0.76525 7.36779,0.66082 9.2173,-0.2118 z m 9.55533,-2.96179 c 0,-0.50868 -0.17184,-0.80374 -0.39485,-0.67799 -0.21717,0.12247 -0.39486,0.62795 -0.39486,1.12329 0,0.5087 0.17183,0.80375 0.39486,0.67799 0.21717,-0.12245 0.39485,-0.62793 0.39485,-1.12329 z M 99.798836,114.06389 c -1.139345,-3.79313 -1.105275,-5.3864 0.151334,-7.07587 0.55366,-0.74438 0.94375,-1.41079 0.86687,-1.48093 -0.30242,-0.27593 -2.648654,1.53339 -3.311484,2.55366 -0.975423,1.50145 -0.892647,4.26108 0.194118,6.47144 2.049506,4.16846 3.401336,3.86688 2.099162,-0.4683 z"
       id="path4568"
       inkscape:connector-curvature="0" />
  </g>
</svg>
